<?xml version="1.0" encoding="utf-8"?>
<!-- Svg Vector Icons : http://www.onlinewebfonts.com/icon -->
<!DOCTYPE svg PUBLIC "-//W3C//DTD SVG 1.1//EN" "http://www.w3.org/Graphics/SVG/1.1/DTD/svg11.dtd">
<svg version="1.1" xmlns="http://www.w3.org/2000/svg" xmlns:xlink="http://www.w3.org/1999/xlink" x="0px" y="0px" viewBox="0 0 1000 1000" enable-background="new 0 0 1000 1000" xml:space="preserve">
<metadata> Svg Vector Icons : http://www.onlinewebfonts.com/icon </metadata>
<g><g transform="translate(0.000000,511.000000) scale(0.100000,-0.100000)"><path d="M3882.2,4340.8C2100.7,4139.5,594.5,2786,205.9,1034.6C64.7,393.7,64.7-170.8,205.9-811.7c317-1422.9,1376.6-2607.5,2771.7-3100.3c349.4-122.6,950.9-233.7,1274.8-233.7h104.1v553v550.6l-210.5,16.2c-782,57.8-1464.5,370.2-2010.6,916.2c-448.8,448.8-747.3,1006.4-872.2,1635.8c-55.5,282.2-55.5,888.4,0,1170.7c256.8,1281.8,1226.2,2251.2,2508,2508c282.3,55.5,888.4,55.5,1170.7,0c629.3-124.9,1186.9-423.4,1635.8-872.2c546-546,858.4-1228.5,916.2-2010.6l16.2-210.5l-647.8-4.6l-647.8-6.9l909.3-1272.5c499.8-698.7,918.5-1272.5,932.4-1272.5c13.9,0,435,573.8,934.7,1272.5L9900,99.9l-643.2,6.9l-643.2,4.6v106.4c0,323.9-111.1,923.1-233.7,1272.5c-492.8,1395.1-1677.4,2454.8-3100.3,2771.7C4812.3,4363.9,4333.4,4391.7,3882.2,4340.8z"/><path d="M3986.3,907.3v-1055l455.8-657.1c252.2-360.9,467.4-657.1,478.9-657.1c16.2,0,562.2,342.4,610.8,384.1c4.6,2.3-173.5,263.8-397.9,578.4L4726.7,74.4v944v944h-370.2h-370.2V907.3z"/></g></g>
</svg>